<svg id="SvgjsSvg1001" width="288" height="288" xmlns="http://www.w3.org/2000/svg" version="1.1" xmlns:xlink="http://www.w3.org/1999/xlink" xmlns:svgjs="http://svgjs.com/svgjs"><defs id="SvgjsDefs1002"></defs><g id="SvgjsG1008" transform="matrix(0.9167,0,0,0.9167,11.995532381439205,11.995200000000011)"><svg xmlns="http://www.w3.org/2000/svg" width="288" height="288" viewBox="0 0 72 72"><path d="M45.531 38.322V12.5c0-5.238-4.262-9.5-9.5-9.5s-9.5 4.262-9.5 9.5v25.73c-3 2.719-7.342 7.607-7.342 13.936C19.189 61.449 26.763 69 36.093 69c9.21 0 16.72-7.55 16.72-16.833 0-6.067-2.282-10.937-7.282-13.845zM36.097 65c-7.124 0-12.917-5.757-12.917-12.833 0-5.246 3.458-9.31 6.412-11.196a2.02 2.02 0 0 0 .938-1.687v-3.7h3.969a1 1 0 1 0 0-2H30.53v-2h3.969a1 1 0 1 0 0-2H30.53v-3h6.969a1 1 0 1 0 0-2H30.53v-3h3.969a1 1 0 1 0 0-2H30.53v-2h3.969a1 1 0 1 0 0-2H30.53V12.5c0-3.032 2.468-5.5 5.5-5.5 3.033 0 5.5 2.468 5.501 5.5v26.986c0 .746.4 1.43 1.063 1.773 5.141 2.674 6.203 7.406 6.203 10.906 0 7.077-5.695 12.835-12.7 12.835z" fill="#ffffff" class="color000 svgShape"></path><path d="M46.027 54.896a1 1 0 00-1.293.572c-1.354 3.508-4.791 5.865-8.554 5.865a1 1 0 100 2c4.583 0 8.77-2.871 10.419-7.145a.998.998 0 00-.572-1.292zM46.346 51.166a1 1 0 00-1 1c0 .258-.01.512-.029.762a1 1 0 101.992.162c.024-.305.037-.611.037-.924a1 1 0 00-1-1z" fill="#ffffff" class="color000 svgShape"></path></svg></g></svg>